<?xml version="1.0" encoding="UTF-8"?>
<!DOCTYPE svg PUBLIC "-//W3C//DTD SVG 1.1//EN" "http://www.w3.org/Graphics/SVG/1.1/DTD/svg11.dtd">
<svg width="160mm" height="102mm" viewBox="0 0 16000 10200" version="1.1" baseProfile="tiny" xmlns="http://www.w3.org/2000/svg" stroke-width="28.222" stroke-linejoin="round" xml:space="preserve">
 <path fill="rgb(255,255,255)" stroke="none" d="M 8000,10220 L 0,10220 0,0 16000,0 16000,10220 8000,10220 Z"/>
 <path fill="none" stroke="rgb(179,179,179)" stroke-linejoin="round" d="M 8270,8588 L 1060,8588 1060,403 15480,403 15480,8588 8270,8588 Z"/>
 <path fill="none" stroke="rgb(179,179,179)" stroke-linejoin="round" d="M 15480,8587 L 1060,8587"/>
 <path fill="none" stroke="rgb(179,179,179)" stroke-linejoin="round" d="M 15480,7768 L 1060,7768"/>
 <path fill="none" stroke="rgb(179,179,179)" stroke-linejoin="round" d="M 15480,6949 L 1060,6949"/>
 <path fill="none" stroke="rgb(179,179,179)" stroke-linejoin="round" d="M 15480,6131 L 1060,6131"/>
 <path fill="none" stroke="rgb(179,179,179)" stroke-linejoin="round" d="M 15480,5312 L 1060,5312"/>
 <path fill="none" stroke="rgb(179,179,179)" stroke-linejoin="round" d="M 15480,4495 L 1060,4495"/>
 <path fill="none" stroke="rgb(179,179,179)" stroke-linejoin="round" d="M 15480,3676 L 1060,3676"/>
 <path fill="none" stroke="rgb(179,179,179)" stroke-linejoin="round" d="M 15480,2857 L 1060,2857"/>
 <path fill="none" stroke="rgb(179,179,179)" stroke-linejoin="round" d="M 15480,2039 L 1060,2039"/>
 <path fill="none" stroke="rgb(179,179,179)" stroke-linejoin="round" d="M 15480,1220 L 1060,1220"/>
 <path fill="none" stroke="rgb(179,179,179)" stroke-linejoin="round" d="M 15480,402 L 1060,402"/>
 <path fill="none" stroke="rgb(179,179,179)" stroke-linejoin="round" d="M 1060,8737 L 1060,8587"/>
 <path fill="none" stroke="rgb(179,179,179)" stroke-linejoin="round" d="M 1060,8737 L 1060,8587"/>
 <path fill="none" stroke="rgb(179,179,179)" stroke-linejoin="round" d="M 5867,8737 L 5867,8587"/>
 <path fill="none" stroke="rgb(179,179,179)" stroke-linejoin="round" d="M 5867,8737 L 5867,8587"/>
 <path fill="none" stroke="rgb(179,179,179)" stroke-linejoin="round" d="M 10673,8737 L 10673,8587"/>
 <path fill="none" stroke="rgb(179,179,179)" stroke-linejoin="round" d="M 10673,8737 L 10673,8587"/>
 <path fill="none" stroke="rgb(179,179,179)" stroke-linejoin="round" d="M 15480,8737 L 15480,8587"/>
 <path fill="none" stroke="rgb(179,179,179)" stroke-linejoin="round" d="M 15480,8737 L 15480,8587"/>
 <path fill="none" stroke="rgb(179,179,179)" stroke-linejoin="round" d="M 1060,8587 L 15480,8587"/>
 <path fill="none" stroke="rgb(179,179,179)" stroke-linejoin="round" d="M 910,8587 L 1060,8587"/>
 <path fill="none" stroke="rgb(179,179,179)" stroke-linejoin="round" d="M 910,8587 L 1060,8587"/>
 <path fill="none" stroke="rgb(179,179,179)" stroke-linejoin="round" d="M 910,7768 L 1060,7768"/>
 <path fill="none" stroke="rgb(179,179,179)" stroke-linejoin="round" d="M 910,7768 L 1060,7768"/>
 <path fill="none" stroke="rgb(179,179,179)" stroke-linejoin="round" d="M 910,6949 L 1060,6949"/>
 <path fill="none" stroke="rgb(179,179,179)" stroke-linejoin="round" d="M 910,6949 L 1060,6949"/>
 <path fill="none" stroke="rgb(179,179,179)" stroke-linejoin="round" d="M 910,6131 L 1060,6131"/>
 <path fill="none" stroke="rgb(179,179,179)" stroke-linejoin="round" d="M 910,6131 L 1060,6131"/>
 <path fill="none" stroke="rgb(179,179,179)" stroke-linejoin="round" d="M 910,5312 L 1060,5312"/>
 <path fill="none" stroke="rgb(179,179,179)" stroke-linejoin="round" d="M 910,5312 L 1060,5312"/>
 <path fill="none" stroke="rgb(179,179,179)" stroke-linejoin="round" d="M 910,4495 L 1060,4495"/>
 <path fill="none" stroke="rgb(179,179,179)" stroke-linejoin="round" d="M 910,4495 L 1060,4495"/>
 <path fill="none" stroke="rgb(179,179,179)" stroke-linejoin="round" d="M 910,3676 L 1060,3676"/>
 <path fill="none" stroke="rgb(179,179,179)" stroke-linejoin="round" d="M 910,3676 L 1060,3676"/>
 <path fill="none" stroke="rgb(179,179,179)" stroke-linejoin="round" d="M 910,2857 L 1060,2857"/>
 <path fill="none" stroke="rgb(179,179,179)" stroke-linejoin="round" d="M 910,2857 L 1060,2857"/>
 <path fill="none" stroke="rgb(179,179,179)" stroke-linejoin="round" d="M 910,2039 L 1060,2039"/>
 <path fill="none" stroke="rgb(179,179,179)" stroke-linejoin="round" d="M 910,2039 L 1060,2039"/>
 <path fill="none" stroke="rgb(179,179,179)" stroke-linejoin="round" d="M 910,1220 L 1060,1220"/>
 <path fill="none" stroke="rgb(179,179,179)" stroke-linejoin="round" d="M 910,1220 L 1060,1220"/>
 <path fill="none" stroke="rgb(179,179,179)" stroke-linejoin="round" d="M 910,402 L 1060,402"/>
 <path fill="none" stroke="rgb(179,179,179)" stroke-linejoin="round" d="M 910,402 L 1060,402"/>
 <path fill="none" stroke="rgb(179,179,179)" stroke-linejoin="round" d="M 1060,8587 L 1060,402"/>
 <path fill="rgb(0,69,134)" stroke="none" d="M 935,5760 L 935,6010 1185,6010 1185,5760 935,5760 Z"/>
 <path fill="none" stroke="rgb(0,69,134)" stroke-linejoin="round" d="M 935,5760 L 935,6010 1185,6010 1185,5760 935,5760 Z"/>
 <path fill="rgb(0,69,134)" stroke="none" d="M 5742,5515 L 5742,5765 5992,5765 5992,5515 5742,5515 Z"/>
 <path fill="none" stroke="rgb(0,69,134)" stroke-linejoin="round" d="M 5742,5515 L 5742,5765 5992,5765 5992,5515 5742,5515 Z"/>
 <path fill="rgb(0,69,134)" stroke="none" d="M 10548,5596 L 10548,5846 10798,5846 10798,5596 10548,5596 Z"/>
 <path fill="none" stroke="rgb(0,69,134)" stroke-linejoin="round" d="M 10548,5596 L 10548,5846 10798,5846 10798,5596 10548,5596 Z"/>
 <path fill="rgb(0,69,134)" stroke="none" d="M 15355,5760 L 15355,6010 15605,6010 15605,5760 15355,5760 Z"/>
 <path fill="none" stroke="rgb(0,69,134)" stroke-linejoin="round" d="M 15355,5760 L 15355,6010 15605,6010 15605,5760 15355,5760 Z"/>
 <path fill="rgb(255,66,14)" stroke="none" d="M 935,3676 L 1060,3801 1185,3676 1060,3551 935,3676 Z"/>
 <path fill="none" stroke="rgb(255,66,14)" stroke-linejoin="round" d="M 935,3676 L 1060,3801 1185,3676 1060,3551 935,3676 Z"/>
 <path fill="rgb(255,66,14)" stroke="none" d="M 5742,3185 L 5867,3310 5992,3185 5867,3060 5742,3185 Z"/>
 <path fill="none" stroke="rgb(255,66,14)" stroke-linejoin="round" d="M 5742,3185 L 5867,3310 5992,3185 5867,3060 5742,3185 Z"/>
 <path fill="rgb(255,66,14)" stroke="none" d="M 10548,3185 L 10673,3310 10798,3185 10673,3060 10548,3185 Z"/>
 <path fill="none" stroke="rgb(255,66,14)" stroke-linejoin="round" d="M 10548,3185 L 10673,3310 10798,3185 10673,3060 10548,3185 Z"/>
 <path fill="rgb(255,66,14)" stroke="none" d="M 15355,3185 L 15480,3310 15605,3185 15480,3060 15355,3185 Z"/>
 <path fill="none" stroke="rgb(255,66,14)" stroke-linejoin="round" d="M 15355,3185 L 15480,3310 15605,3185 15480,3060 15355,3185 Z"/>
 <path fill="rgb(255,211,32)" stroke="none" d="M 935,1914 L 1060,2164 1185,1914 935,1914 Z"/>
 <path fill="none" stroke="rgb(255,211,32)" stroke-linejoin="round" d="M 935,1914 L 1060,2164 1185,1914 935,1914 Z"/>
 <path fill="rgb(255,211,32)" stroke="none" d="M 5742,1668 L 5867,1918 5992,1668 5742,1668 Z"/>
 <path fill="none" stroke="rgb(255,211,32)" stroke-linejoin="round" d="M 5742,1668 L 5867,1918 5992,1668 5742,1668 Z"/>
 <path fill="rgb(255,211,32)" stroke="none" d="M 10548,1750 L 10673,2000 10798,1750 10548,1750 Z"/>
 <path fill="none" stroke="rgb(255,211,32)" stroke-linejoin="round" d="M 10548,1750 L 10673,2000 10798,1750 10548,1750 Z"/>
 <path fill="rgb(255,211,32)" stroke="none" d="M 15355,1504 L 15480,1754 15605,1504 15355,1504 Z"/>
 <path fill="none" stroke="rgb(255,211,32)" stroke-linejoin="round" d="M 15355,1504 L 15480,1754 15605,1504 15355,1504 Z"/>
 <text class="TextShape"><tspan class="TextParagraph" font-family="Liberation Sans" font-size="353px" font-weight="400"><tspan class="TextPosition" x="337" y="9163"/><tspan class="TextPosition" x="337" y="9163"><tspan fill="rgb(0,0,0)" stroke="none">Accuracy</tspan></tspan></tspan></text>
 <text class="TextShape"><tspan class="TextParagraph" font-family="Liberation Sans" font-size="353px" font-weight="400"><tspan class="TextPosition" x="5144" y="9163"/><tspan class="TextPosition" x="5144" y="9163"><tspan fill="rgb(0,0,0)" stroke="none">Precision</tspan></tspan></tspan></text>
 <text class="TextShape"><tspan class="TextParagraph" font-family="Liberation Sans" font-size="353px" font-weight="400"><tspan class="TextPosition" x="10184" y="9163"/><tspan class="TextPosition" x="10184" y="9163"><tspan fill="rgb(0,0,0)" stroke="none">Recall</tspan></tspan></tspan></text>
 <text class="TextShape"><tspan class="TextParagraph" font-family="Liberation Sans" font-size="353px" font-weight="400"><tspan class="TextPosition" x="15283" y="9163"/><tspan class="TextPosition" x="15283" y="9163"><tspan fill="rgb(0,0,0)" stroke="none">F1</tspan></tspan></tspan></text>
 <text class="TextShape"><tspan class="TextParagraph" font-family="Liberation Sans" font-size="353px" font-weight="400"><tspan class="TextPosition" x="624" y="8716"/><tspan class="TextPosition" x="624" y="8716"><tspan fill="rgb(0,0,0)" stroke="none">0</tspan></tspan></tspan></text>
 <text class="TextShape"><tspan class="TextParagraph" font-family="Liberation Sans" font-size="353px" font-weight="400"><tspan class="TextPosition" x="321" y="7897"/><tspan class="TextPosition" x="321" y="7897"><tspan fill="rgb(0,0,0)" stroke="none">0.1</tspan></tspan></tspan></text>
 <text class="TextShape"><tspan class="TextParagraph" font-family="Liberation Sans" font-size="353px" font-weight="400"><tspan class="TextPosition" x="321" y="7078"/><tspan class="TextPosition" x="321" y="7078"><tspan fill="rgb(0,0,0)" stroke="none">0.2</tspan></tspan></tspan></text>
 <text class="TextShape"><tspan class="TextParagraph" font-family="Liberation Sans" font-size="353px" font-weight="400"><tspan class="TextPosition" x="321" y="6260"/><tspan class="TextPosition" x="321" y="6260"><tspan fill="rgb(0,0,0)" stroke="none">0.3</tspan></tspan></tspan></text>
 <text class="TextShape"><tspan class="TextParagraph" font-family="Liberation Sans" font-size="353px" font-weight="400"><tspan class="TextPosition" x="321" y="5441"/><tspan class="TextPosition" x="321" y="5441"><tspan fill="rgb(0,0,0)" stroke="none">0.4</tspan></tspan></tspan></text>
 <text class="TextShape"><tspan class="TextParagraph" font-family="Liberation Sans" font-size="353px" font-weight="400"><tspan class="TextPosition" x="321" y="4623"/><tspan class="TextPosition" x="321" y="4623"><tspan fill="rgb(0,0,0)" stroke="none">0.5</tspan></tspan></tspan></text>
 <text class="TextShape"><tspan class="TextParagraph" font-family="Liberation Sans" font-size="353px" font-weight="400"><tspan class="TextPosition" x="321" y="3804"/><tspan class="TextPosition" x="321" y="3804"><tspan fill="rgb(0,0,0)" stroke="none">0.6</tspan></tspan></tspan></text>
 <text class="TextShape"><tspan class="TextParagraph" font-family="Liberation Sans" font-size="353px" font-weight="400"><tspan class="TextPosition" x="321" y="2985"/><tspan class="TextPosition" x="321" y="2985"><tspan fill="rgb(0,0,0)" stroke="none">0.7</tspan></tspan></tspan></text>
 <text class="TextShape"><tspan class="TextParagraph" font-family="Liberation Sans" font-size="353px" font-weight="400"><tspan class="TextPosition" x="321" y="2167"/><tspan class="TextPosition" x="321" y="2167"><tspan fill="rgb(0,0,0)" stroke="none">0.8</tspan></tspan></tspan></text>
 <text class="TextShape"><tspan class="TextParagraph" font-family="Liberation Sans" font-size="353px" font-weight="400"><tspan class="TextPosition" x="321" y="1348"/><tspan class="TextPosition" x="321" y="1348"><tspan fill="rgb(0,0,0)" stroke="none">0.9</tspan></tspan></tspan></text>
 <text class="TextShape"><tspan class="TextParagraph" font-family="Liberation Sans" font-size="353px" font-weight="400"><tspan class="TextPosition" x="624" y="530"/><tspan class="TextPosition" x="624" y="530"><tspan fill="rgb(0,0,0)" stroke="none">1</tspan></tspan></tspan></text>
 <path fill="rgb(0,69,134)" stroke="none" d="M 4012,9631 L 4012,9842 4223,9842 4223,9631 4012,9631 Z"/>
 <path fill="none" stroke="rgb(0,69,134)" stroke-linejoin="round" d="M 4012,9631 L 4012,9842 4223,9842 4223,9631 4012,9631 Z"/>
 <path fill="rgb(255,66,14)" stroke="none" d="M 6235,9736 L 6340,9842 6446,9736 6340,9631 6235,9736 Z"/>
 <path fill="none" stroke="rgb(255,66,14)" stroke-linejoin="round" d="M 6235,9736 L 6340,9842 6446,9736 6340,9631 6235,9736 Z"/>
 <path fill="rgb(255,211,32)" stroke="none" d="M 8364,9631 L 8469,9842 8575,9631 8364,9631 Z"/>
 <path fill="none" stroke="rgb(255,211,32)" stroke-linejoin="round" d="M 8364,9631 L 8469,9842 8575,9631 8364,9631 Z"/>
 <text class="TextShape"><tspan class="TextParagraph" font-family="Liberation Sans" font-size="353px" font-weight="400"><tspan class="TextPosition" x="4323" y="9864"/><tspan class="TextPosition" x="4323" y="9864"><tspan fill="rgb(0,0,0)" stroke="none">No context</tspan></tspan></tspan></text>
 <text class="TextShape"><tspan class="TextParagraph" font-family="Liberation Sans" font-size="353px" font-weight="400"><tspan class="TextPosition" x="6546" y="9864"/><tspan class="TextPosition" x="6546" y="9864"><tspan fill="rgb(0,0,0)" stroke="none">Behaviour</tspan></tspan></tspan></text>
 <text class="TextShape"><tspan class="TextParagraph" font-family="Liberation Sans" font-size="353px" font-weight="400"><tspan class="TextPosition" x="8675" y="9864"/><tspan class="TextPosition" x="8675" y="9864"><tspan fill="rgb(0,0,0)" stroke="none">Behaviour + Location</tspan></tspan></tspan></text>
</svg>